<?xml version="1.0" encoding="UTF-8" standalone="no"?>
<svg
   height="16px"
   viewBox="0 0 16 16"
   width="16px"
   version="1.1"
   id="svg4248"
   sodipodi:docname="io.github.nate_xyz.Conjure-symbolic.svg"
   xml:space="preserve"
   inkscape:version="1.2.2 (b0a8486541, 2022-12-01)"
   xmlns:inkscape="http://www.inkscape.org/namespaces/inkscape"
   xmlns:sodipodi="http://sodipodi.sourceforge.net/DTD/sodipodi-0.dtd"
   xmlns:xlink="http://www.w3.org/1999/xlink"
   xmlns="http://www.w3.org/2000/svg"
   xmlns:svg="http://www.w3.org/2000/svg"><defs
     id="defs4252"><inkscape:path-effect
       effect="offset"
       id="path-effect9308"
       is_visible="true"
       lpeversion="1.2"
       linejoin_type="miter"
       unit="px"
       offset="1.2"
       miter_limit="4"
       attempt_force_join="false"
       update_on_knot_move="true" /><inkscape:path-effect
       effect="offset"
       id="path-effect9302"
       is_visible="true"
       lpeversion="1.2"
       linejoin_type="miter"
       unit="mm"
       offset="0"
       miter_limit="4"
       attempt_force_join="false"
       update_on_knot_move="true" /><linearGradient
       y2="236"
       x2="96"
       y1="236"
       x1="32"
       gradientTransform="translate(604.81684,170.58641)"
       gradientUnits="userSpaceOnUse"
       id="linearGradient1099"
       xlink:href="#linearGradient1036" /><linearGradient
       id="linearGradient1036"><stop
         id="stop1032"
         offset="0"
         style="stop-color:#d5d3cf;stop-opacity:1;" /><stop
         id="stop1034"
         offset="1"
         style="stop-color:#f6f5f4;stop-opacity:1" /></linearGradient><radialGradient
       r="32"
       fy="-76"
       fx="-244"
       cy="-76"
       cx="-244"
       gradientTransform="matrix(0.88333331,0,0,0.88333331,-460.35018,463.11973)"
       gradientUnits="userSpaceOnUse"
       id="radialGradient1103"
       xlink:href="#linearGradient1069" /><linearGradient
       id="linearGradient1069"><stop
         id="stop1065"
         offset="0"
         style="stop-color:#d5d3cf;stop-opacity:1" /><stop
         id="stop1067-1"
         offset="1"
         style="stop-color:#949390;stop-opacity:1" /></linearGradient><linearGradient
       gradientUnits="userSpaceOnUse"
       y2="232"
       x2="64"
       y1="262.5"
       x1="64"
       id="linearGradient1027"
       xlink:href="#linearGradient1025"
       gradientTransform="translate(-470.5864,432.81685)" /><linearGradient
       id="linearGradient1025"><stop
         id="stop1021"
         offset="0"
         style="stop-color:#9a9996;stop-opacity:1" /><stop
         id="stop1023"
         offset="1"
         style="stop-color:#77767b;stop-opacity:1" /></linearGradient><inkscape:path-effect
       effect="spiro"
       id="path-effect35304-9"
       is_visible="true" /><clipPath
       clipPathUnits="userSpaceOnUse"
       id="clipPath1609-7"><path
         sodipodi:nodetypes="cccccc"
         inkscape:connector-curvature="0"
         id="path1611-5"
         d="m 252,116 28,-28 v -8 h -36 v 36 z"
         style="fill:#e74747;stroke:none;stroke-width:0.25px;stroke-linecap:butt;stroke-linejoin:miter;stroke-opacity:1" /></clipPath><linearGradient
       id="linearGradient1697"><stop
         id="stop1685"
         offset="0"
         style="stop-color:#deddda;stop-opacity:1" /><stop
         style="stop-color:#eeeeec;stop-opacity:1"
         offset="0.04545455"
         id="stop1687" /><stop
         id="stop1689"
         offset="0.09090909"
         style="stop-color:#deddda;stop-opacity:1" /><stop
         style="stop-color:#deddda;stop-opacity:1"
         offset="0.90909094"
         id="stop1691" /><stop
         id="stop1693"
         offset="0.95454544"
         style="stop-color:#eeeeec;stop-opacity:1" /><stop
         id="stop1695"
         offset="1"
         style="stop-color:#c0bfbc;stop-opacity:1" /></linearGradient><clipPath
       clipPathUnits="userSpaceOnUse"
       id="clipPath1289"><path
         style="display:inline;opacity:1;vector-effect:none;fill:none;fill-opacity:1;stroke:#000000;stroke-width:4;stroke-linecap:round;stroke-linejoin:round;stroke-miterlimit:4;stroke-dasharray:none;stroke-dashoffset:0;stroke-opacity:1;marker:none;marker-start:none;marker-mid:none;marker-end:none;paint-order:normal;enable-background:new"
         d="m 64,-148 h 64 l 64,-64 64,64 h 192 c 17.728,0 32,14.272 32,32 v 288 c 0,17.728 -14.272,32 -32,32 H 256 l -64,-64 -64,64 H 64 C 46.272,204 32,189.728 32,172 v -288 c 0,-17.728 14.408898,-34.19889 32,-32 z"
         id="path1291"
         inkscape:connector-curvature="0"
         sodipodi:nodetypes="scccsssscccssss" /></clipPath><linearGradient
       id="paint3_linear-2-6-5"
       x2="1"
       gradientUnits="userSpaceOnUse"
       gradientTransform="matrix(0,6,-12,0,-64,209.99687)"><stop
         stop-color="#C01C27"
         id="stop91-0-7-4" /><stop
         offset="1"
         stop-color="#E01B24"
         id="stop93-2-5-7" /></linearGradient><clipPath
       clipPathUnits="userSpaceOnUse"
       id="clipPath1609"><path
         sodipodi:nodetypes="cccccc"
         inkscape:connector-curvature="0"
         id="path1611"
         d="m 252,116 28,-28 v -8 h -36 v 36 z"
         style="fill:#e74747;stroke:none;stroke-width:0.25px;stroke-linecap:butt;stroke-linejoin:miter;stroke-opacity:1" /></clipPath><clipPath
       clipPathUnits="userSpaceOnUse"
       id="clipPath1122"><path
         style="fill:none;stroke:#000000;stroke-width:1px;stroke-linecap:butt;stroke-linejoin:miter;stroke-opacity:1"
         d="m -1147,325 c -1.1614,-17.38465 4.3272,-35.13154 15.1003,-48.82519 10.773,-13.69365 26.7293,-23.20541 43.8989,-26.16874 11.2585,-1.94313 22.9324,-1.17391 34.0008,-4.00607 8.6946,-2.22476 16.8092,-6.67773 23.3559,-12.81667 6.5466,-6.13894 11.5114,-13.95094 14.2899,-22.48471 2.7784,-8.53378 3.3646,-17.77137 1.6872,-26.5879 -1.6774,-8.81654 -5.6149,-17.19347 -11.333,-24.11072 l -118,-10 z"
         id="path1124"
         inkscape:connector-curvature="0"
         sodipodi:nodetypes="cssccc"
         inkscape:original-d="m -1147,325 c 57,32 32.9835,-59.83166 58.9992,-74.99393 C -1069.5479,239.2515 -1069,251 -1054,246 c 15,-5 28,-86 28,-86 l -118,-10 z" /></clipPath><clipPath
       clipPathUnits="userSpaceOnUse"
       id="clipPath1130"><path
         transform="translate(279.3319,30.54918)"
         style="fill:none;stroke:#000000;stroke-width:1px;stroke-linecap:butt;stroke-linejoin:miter;stroke-opacity:1"
         d="m -1153,312 c -1.4004,-15.18697 1.7805,-30.7666 9.0221,-44.18915 7.2415,-13.42255 18.5156,-24.63587 31.9771,-31.80478 16.5286,-8.8023 35.875,-11.48599 52.0008,-21.00607 19.3048,-11.39683 32.435,-32.63674 34,-55 l -113,-52 z"
         id="path1132"
         inkscape:connector-curvature="0"
         sodipodi:nodetypes="cssccc"
         inkscape:original-d="m -1153,312 c 49.5392,40.20685 -26.0465,-15.69866 40.9992,-75.99393 C -1096.12,221.72423 -1075,220 -1060,215 c 15,-5 34,-55 34,-55 l -113,-52 z" /></clipPath><clipPath
       clipPathUnits="userSpaceOnUse"
       id="clipPath1138"><path
         transform="translate(537.64929,32.86167)"
         style="fill:none;stroke:#000000;stroke-width:1px;stroke-linecap:butt;stroke-linejoin:miter;stroke-opacity:1"
         d="m -1137,222 c -0.2126,4.60594 1.1165,9.2698 3.7253,13.07168 2.6087,3.80189 6.4821,6.71996 10.8561,8.17868 4.374,1.45872 9.2236,1.4497 13.5922,-0.0253 4.3685,-1.47498 8.231,-4.40745 10.8256,-8.21901 3.9947,-5.86842 4.8114,-13.25308 7.0008,-20.00607 2.7069,-8.34922 7.6728,-15.95404 14.2288,-21.78977 6.556,-5.83572 14.6849,-9.8872 23.2915,-11.60852 8.6066,-1.72132 17.6686,-1.10801 25.9647,1.75728 8.2962,2.86529 15.8051,7.97514 21.515,14.64101 l -133,-90 z"
         id="path1140"
         inkscape:connector-curvature="0"
         sodipodi:nodetypes="cssccc"
         inkscape:original-d="m -1137,222 c 49.5392,40.20685 -28.0465,73.30134 38.9992,13.00607 C -1082.12,220.72423 -1106,220 -1091,215 c 15,-5 85,-17 85,-17 l -133,-90 z" /></clipPath><clipPath
       clipPathUnits="userSpaceOnUse"
       id="clipPath1134"><path
         inkscape:original-d="m -1149,199 c 49.5392,40.20685 -16.0465,54.30134 50.9992,-5.99393 C -1082.12,178.72423 -1091,221 -1076,216 c 15,-5 50,-56 50,-56 l -113,-52 z"
         sodipodi:nodetypes="cssccc"
         inkscape:connector-curvature="0"
         id="path1136"
         d="m -1149,199 c 5.9468,-7.38454 14.8585,-12.31001 24.275,-13.41673 9.4165,-1.10672 19.2273,1.61829 26.7242,7.4228 8.405,6.50759 13.6671,16.39534 22.0008,22.99393 7.4273,5.88093 17.1377,8.79771 26.5763,7.98292 9.4385,-0.81478 18.5054,-5.3525 24.815,-12.41927 6.3096,-7.06677 9.7952,-16.58777 9.5397,-26.05799 -0.2556,-9.47023 -4.2495,-18.78942 -10.931,-25.50566 l -113,-52 z"
         style="fill:none;stroke:#000000;stroke-width:1px;stroke-linecap:butt;stroke-linejoin:miter;stroke-opacity:1"
         transform="translate(419.64929,26.36167)" /></clipPath><clipPath
       clipPathUnits="userSpaceOnUse"
       id="clipPath1126"><path
         inkscape:original-d="m -1129,309 c 57,32 14.9835,-70.83166 40.9992,-85.99393 C -1069.5479,212.2515 -1075,239 -1060,234 c 15,-5 34,-74 34,-74 l -118,-10 z"
         sodipodi:nodetypes="cssccc"
         inkscape:connector-curvature="0"
         id="path1128"
         d="m -1129,309 c -9.3556,-6.43987 -16.3087,-16.28877 -19.2453,-27.26036 -2.9366,-10.97159 -1.8328,-22.97695 3.0551,-33.22914 4.8879,-10.2522 13.5204,-18.66813 23.8934,-23.29413 10.373,-4.62599 22.4025,-5.42455 33.296,-2.2103 9.6306,2.84161 18.2387,8.6437 28.0008,10.99393 9.2555,2.22826 19.2727,1.14385 27.8369,-3.01349 8.5643,-4.15734 15.6129,-11.35721 19.5874,-20.00776 3.9746,-8.65055 4.8461,-18.68855 2.4219,-27.89465 -2.4243,-9.20609 -8.1266,-17.513 -15.8462,-23.0841 l -118,-10 z"
         style="fill:none;stroke:#000000;stroke-width:1px;stroke-linecap:butt;stroke-linejoin:miter;stroke-opacity:1"
         transform="translate(142.91562,9.58034)" /></clipPath><clipPath
       id="clipPath904"
       clipPathUnits="userSpaceOnUse"><rect
         style="opacity:1;fill:#949390;fill-opacity:1;stroke:none;stroke-width:16;stroke-linecap:round;stroke-linejoin:round;stroke-miterlimit:4;stroke-dasharray:none;stroke-dashoffset:11.2;stroke-opacity:1"
         id="rect906"
         width="96"
         height="48"
         x="208"
         y="4" /></clipPath><linearGradient
       id="linearGradient6597"><stop
         id="stop6599"
         offset="0"
         style="stop-color:#b5ae9c;stop-opacity:1;" /><stop
         style="stop-color:#8e8469;stop-opacity:1;"
         offset="0.3416886"
         id="stop6605" /><stop
         style="stop-color:#39352a;stop-opacity:1;"
         offset="0.64237297"
         id="stop6601" /><stop
         id="stop6603"
         offset="1"
         style="stop-color:#5c5443;stop-opacity:1;" /></linearGradient><linearGradient
       id="linearGradient6275"><stop
         id="stop6277"
         offset="0"
         style="stop-color:#c0baab;stop-opacity:1" /><stop
         id="stop6279"
         offset="1"
         style="stop-color:#bfb9a9;stop-opacity:0.17647059;" /></linearGradient><clipPath
       id="clipPath6405"
       clipPathUnits="userSpaceOnUse"><path
         inkscape:connector-curvature="0"
         sodipodi:nodetypes="csscccc"
         id="path6407"
         d="m 78.352199,58.820687 c 0,0 14.636091,30.305885 48.876311,29.450913 71.75463,-1.807591 84.33717,-39.392671 86.13735,-44.815451 1.80018,-5.422779 4.55468,-4.601369 5.19151,0.410374 C 241.95974,257.16247 56.148281,165.6455 49.549281,129.31681 78.953017,119.97125 76.952106,109.18393 77.452106,97.683932 Z"
         style="display:inline;overflow:visible;visibility:visible;fill:none;fill-opacity:1;fill-rule:evenodd;stroke:#000000;stroke-width:1;stroke-linecap:butt;stroke-linejoin:miter;stroke-miterlimit:10;stroke-dasharray:none;stroke-dashoffset:0;stroke-opacity:1;marker:none;marker-start:none;marker-mid:none;marker-end:none" /></clipPath><linearGradient
       id="linearGradient6457"><stop
         style="stop-color:#5b676b;stop-opacity:1;"
         offset="0"
         id="stop6459" /><stop
         id="stop6463"
         offset="0.81573331"
         style="stop-color:#000000;stop-opacity:1" /><stop
         style="stop-color:#606e73;stop-opacity:1"
         offset="1"
         id="stop6461" /></linearGradient><linearGradient
       id="linearGradient6193"><stop
         style="stop-color:#ffffff;stop-opacity:1;"
         offset="0"
         id="stop6195" /><stop
         id="stop6197"
         offset="0.83333331"
         style="stop-color:#c3c3c3;stop-opacity:1" /><stop
         style="stop-color:#f0f0f0;stop-opacity:1;"
         offset="1"
         id="stop6199" /></linearGradient><linearGradient
       id="linearGradient5596"><stop
         style="stop-color:#000000;stop-opacity:0;"
         offset="0"
         id="stop5598" /><stop
         id="stop5604"
         offset="0.88095236"
         style="stop-color:#000000;stop-opacity:0;" /><stop
         style="stop-color:#000000;stop-opacity:1;"
         offset="1"
         id="stop5600" /></linearGradient><linearGradient
       id="linearGradient6367"
       inkscape:collect="always"><stop
         id="stop6369"
         offset="0"
         style="stop-color:#596569;stop-opacity:1" /><stop
         id="stop6371"
         offset="1"
         style="stop-color:#2e3436;stop-opacity:1" /></linearGradient><radialGradient
       r="12.374369"
       fy="99.426102"
       fx="173.94827"
       cy="99.426102"
       cx="173.94827"
       gradientUnits="userSpaceOnUse"
       id="radialGradient1462"
       xlink:href="#linearGradient6367"
       inkscape:collect="always" /><clipPath
       id="clipPath7948"
       clipPathUnits="userSpaceOnUse"><path
         inkscape:connector-curvature="0"
         sodipodi:nodetypes="cccccc"
         id="path7950"
         d="m 126,141.25 c 13.63429,-0.0287 30.69591,-3.48571 43.875,-22 L 254.5,182 l 3.5,78.5 -99,-51 z"
         style="display:inline;overflow:visible;visibility:visible;opacity:0.578313;fill:#000000;fill-opacity:1;fill-rule:evenodd;stroke:none;stroke-width:20;stroke-linecap:round;stroke-linejoin:miter;stroke-miterlimit:4;stroke-dasharray:none;stroke-dashoffset:0;stroke-opacity:1;marker:none;marker-start:none;marker-mid:none;marker-end:none;enable-background:accumulate" /></clipPath><linearGradient
       id="linearGradient6963"><stop
         id="stop6965"
         offset="0"
         style="stop-color:#696969;stop-opacity:1;" /><stop
         id="stop6967"
         offset="1"
         style="stop-color:#000000;stop-opacity:1;" /></linearGradient><linearGradient
       id="linearGradient6536"><stop
         id="stop6538"
         offset="0"
         style="stop-color:#d87711;stop-opacity:1;" /><stop
         style="stop-color:#f3ae66;stop-opacity:1;"
         offset="0.24242425"
         id="stop6540" /><stop
         id="stop6542"
         offset="0.62121212"
         style="stop-color:#713e08;stop-opacity:1;" /><stop
         id="stop6544"
         offset="1"
         style="stop-color:#e07c12;stop-opacity:1;" /></linearGradient><linearGradient
       id="linearGradient6939"><stop
         id="stop6941"
         offset="0"
         style="stop-color:#bdbdbd;stop-opacity:1;" /><stop
         style="stop-color:#e2e2e2;stop-opacity:1;"
         offset="0.33333334"
         id="stop6947" /><stop
         id="stop6949"
         offset="0.66666669"
         style="stop-color:#a3a3a3;stop-opacity:1;" /><stop
         id="stop6943"
         offset="1"
         style="stop-color:#dddddd;stop-opacity:1;" /></linearGradient><filter
       id="c"
       x="-0.036307"
       y="-0.035698999"
       width="1.0726"
       height="1.0714"
       style="color-interpolation-filters:sRGB"><feGaussianBlur
         stdDeviation="1.2791125"
         id="feGaussianBlur13" /></filter><filter
       id="b"
       x="-0.056772999"
       y="-0.063615002"
       width="1.1135"
       height="1.1272"
       style="color-interpolation-filters:sRGB"><feGaussianBlur
         stdDeviation="7.4064132"
         id="feGaussianBlur10" /></filter><linearGradient
       id="a"
       x1="479.79001"
       x2="529.53003"
       y1="233.23"
       y2="276.31"
       gradientUnits="userSpaceOnUse"><stop
         style="stop-color:#fff"
         offset="0"
         id="stop2" /><stop
         style="stop-color:#fff;stop-opacity:0"
         offset="1"
         id="stop4" /></linearGradient><clipPath
       id="d"><path
         inkscape:connector-curvature="0"
         d="m 503.51,222.01 c -20.04,0 -36.286,16.246 -36.286,36.286 0,1.9247 0.15113,3.8139 0.43979,5.6575 1.4023,6.7619 6.6874,9.388 6.6874,9.388 1.1074,0.90879 2.4838,1.8364 4.0732,2.7523 l -0.13076,-0.004 c 0,0 3.3315,18.563 9.4439,18.41 4.6229,-0.11575 8.2504,-9.4523 14.128,-9.2645 5.8724,0.18755 8.2564,9.1509 14.1,9.2129 3.3748,0.0358 6.3071,-5.7438 8.1597,-10.528 0.58645,-0.11985 1.1699,-0.24997 1.7493,-0.39224 5.5562,5.2542 18.398,10.599 23.871,12.412 0.0748,-0.0397 0.13497,-0.0861 0.17672,-0.14056 1.3957,-1.8189 -7.9538,-16.01 -12.983,-23.371 1.8385,-4.3435 2.8556,-9.1191 2.8556,-14.132 0,-20.04 -16.246,-36.286 -36.286,-36.286 z"
         style="fill:#009688;fill-rule:evenodd"
         id="path7" /></clipPath><radialGradient
       id="Degradado_sin_nombre_16"
       cx="382.44"
       cy="-1232.42"
       r="72.43"
       gradientTransform="matrix(0.69,0,0,-0.22,-198.57,-153.98)"
       gradientUnits="userSpaceOnUse"><stop
         offset="0"
         stop-color="#686868"
         stop-opacity="0.5"
         id="stop2-7" /><stop
         offset="1"
         stop-color="#686868"
         stop-opacity="0"
         id="stop4-5" /></radialGradient><linearGradient
       id="Degradado_sin_nombre_100"
       x1="64"
       y1="121.4"
       x2="64"
       y2="1.4"
       gradientUnits="userSpaceOnUse"><stop
         offset="0"
         stop-color="#0e141f"
         id="stop7" /><stop
         offset="1"
         stop-color="#273445"
         id="stop9" /></linearGradient><linearGradient
       id="Degradado_sin_nombre_3"
       x1="-397.51999"
       y1="359.85001"
       x2="-397.51999"
       y2="331.01001"
       gradientTransform="matrix(4.16,0,0,-4.16,1719.25,1500.05)"
       gradientUnits="userSpaceOnUse"><stop
         offset="0"
         stop-color="#fff"
         id="stop12" /><stop
         offset="0.42"
         stop-color="#fff"
         stop-opacity="0.24"
         id="stop14" /><stop
         offset="0.82"
         stop-color="#fff"
         stop-opacity="0.16"
         id="stop16" /><stop
         offset="1"
         stop-color="#fff"
         stop-opacity="0.39"
         id="stop18" /></linearGradient><radialGradient
       id="Degradado_sin_nombre_80"
       cx="63.970001"
       cy="62.790001"
       r="34.619999"
       gradientTransform="matrix(0.92,0,0,0.92,165.99813,509.69325)"
       gradientUnits="userSpaceOnUse"><stop
         offset="0.51"
         stop-color="#fafafa"
         id="stop21" /><stop
         offset="1"
         stop-color="#d4d4d4"
         id="stop23" /></radialGradient><linearGradient
       id="Degradado_sin_nombre_56"
       x1="70.120003"
       y1="69.120003"
       x2="57.880001"
       y2="56.880001"
       gradientUnits="userSpaceOnUse"><stop
         offset="0"
         stop-color="#3689e6"
         id="stop26" /><stop
         offset="1"
         stop-color="#68b723"
         id="stop28" /></linearGradient><linearGradient
       gradientTransform="translate(160.63813,504.24325)"
       id="Degradado_sin_nombre_56-2"
       x1="69.300003"
       y1="68.300003"
       x2="58.700001"
       y2="57.700001"
       xlink:href="#Degradado_sin_nombre_56" /><clipPath
       id="clipPath1289-7"
       clipPathUnits="userSpaceOnUse"><path
         sodipodi:nodetypes="scccsssscccssss"
         inkscape:connector-curvature="0"
         id="path1291-1"
         d="m 64,-148 h 64 l 64,-64 64,64 h 192 c 17.728,0 32,14.272 32,32 v 288 c 0,17.728 -14.272,32 -32,32 H 256 l -64,-64 -64,64 H 64 C 46.272,204 32,189.728 32,172 v -288 c 0,-17.728 14.408898,-34.19889 32,-32 z"
         style="display:inline;opacity:1;vector-effect:none;fill:none;fill-opacity:1;stroke:#000000;stroke-width:4;stroke-linecap:round;stroke-linejoin:round;stroke-miterlimit:4;stroke-dasharray:none;stroke-dashoffset:0;stroke-opacity:1;marker:none;marker-start:none;marker-mid:none;marker-end:none;paint-order:normal;enable-background:new" /></clipPath><clipPath
       clipPathUnits="userSpaceOnUse"
       id="clipPath1609-7-7"><path
         sodipodi:nodetypes="cccccc"
         inkscape:connector-curvature="0"
         id="path1611-5-5"
         d="m 252,116 28,-28 v -8 h -36 v 36 z"
         style="fill:#e74747;stroke:none;stroke-width:0.25px;stroke-linecap:butt;stroke-linejoin:miter;stroke-opacity:1" /></clipPath><clipPath
       clipPathUnits="userSpaceOnUse"
       id="clipPath1521"><rect
         clip-path="none"
         ry="7.9999995"
         rx="7.9999995"
         y="-282"
         x="-119.99999"
         height="82"
         width="111.99999"
         id="rect1523"
         style="opacity:1;vector-effect:none;fill:#f6f5f4;fill-opacity:1;stroke:none;stroke-width:13.7188;stroke-linecap:butt;stroke-linejoin:miter;stroke-miterlimit:4;stroke-dasharray:none;stroke-dashoffset:0;stroke-opacity:1;marker:none;marker-start:none;marker-mid:none;marker-end:none;paint-order:normal"
         transform="scale(-1)" /></clipPath><clipPath
       clipPathUnits="userSpaceOnUse"
       id="clipPath2024"><rect
         style="opacity:1;vector-effect:none;fill:#63452c;fill-opacity:1;stroke:none;stroke-width:4;stroke-linecap:round;stroke-linejoin:round;stroke-miterlimit:4;stroke-dasharray:none;stroke-dashoffset:0;stroke-opacity:1"
         id="rect2026"
         width="74"
         height="98"
         x="6"
         y="196" /></clipPath><linearGradient
       inkscape:collect="always"
       id="linearGradient5299"><stop
         style="stop-color:#77767b;stop-opacity:1"
         offset="0"
         id="stop5291" /><stop
         id="stop5293"
         offset="0.73333335"
         style="stop-color:#9a9996;stop-opacity:1" /><stop
         style="stop-color:#f6f5f4;stop-opacity:1"
         offset="0.83333331"
         id="stop5295" /><stop
         id="stop1949"
         offset="0.93333334"
         style="stop-color:#adacaa;stop-opacity:1;" /><stop
         style="stop-color:#77767b;stop-opacity:1"
         offset="1"
         id="stop5297" /></linearGradient><linearGradient
       inkscape:collect="always"
       xlink:href="#linearGradient5299"
       id="linearGradient1109"
       x1="58"
       y1="202"
       x2="88"
       y2="202"
       gradientUnits="userSpaceOnUse"
       gradientTransform="translate(4,8)" /><filter
       id="filter4520"
       x="-0.059999999"
       y="-0.059999999"
       width="1.12"
       height="1.12"
       style="color-interpolation-filters:sRGB"><feGaussianBlur
         stdDeviation="1.2"
         id="feGaussianBlur100" /></filter><linearGradient
       id="linearGradient4631"
       x1="147.31"
       x2="185.85001"
       y1="830.88"
       y2="869.41998"
       gradientTransform="translate(351.45,336.28)"
       gradientUnits="userSpaceOnUse"><stop
         style="stop-color:#f2f2f2;stop-opacity:1"
         offset="0"
         id="stop83" /><stop
         style="stop-color:#808080;stop-opacity:.8"
         offset="1"
         id="stop85" /></linearGradient><clipPath
       clipPathUnits="userSpaceOnUse"
       id="clipPath2024-1"><path
         sodipodi:nodetypes="ccccc"
         inkscape:connector-curvature="0"
         style="opacity:1;fill:url(#radialGradient2028);fill-opacity:1;stroke:none;stroke-width:29.4912;stroke-linecap:square;stroke-linejoin:round;stroke-miterlimit:4;stroke-dasharray:none;stroke-dashoffset:0;stroke-opacity:1"
         d="m 161.04818,-12.859367 c -26.22266,-0.02143 -48.34317,-17.698761 -51.64981,-41.273807 3.25376,-23.616237 25.38867,-41.348909 51.64981,-41.377599 26.22267,0.02143 48.34318,17.698766 51.64982,41.273789 -3.25377,23.616237 -25.38868,41.348903 -51.64982,41.377617 z"
         id="path2026" /></clipPath><clipPath
       clipPathUnits="userSpaceOnUse"
       id="clipPath2014"><path
         sodipodi:nodetypes="ccccc"
         inkscape:connector-curvature="0"
         style="opacity:1;fill:url(#radialGradient2018);fill-opacity:1;stroke:none;stroke-width:29.4912;stroke-linecap:square;stroke-linejoin:round;stroke-miterlimit:4;stroke-dasharray:none;stroke-dashoffset:0;stroke-opacity:1"
         d="m 161.04818,-12.859367 c -26.22266,-0.02143 -48.34317,-17.698761 -51.64981,-41.273807 3.25376,-23.616237 25.38867,-41.348909 51.64981,-41.377599 26.22267,0.02143 48.34318,17.698766 51.64982,41.273789 -3.25377,23.616237 -25.38868,41.348903 -51.64982,41.377617 z"
         id="path2016" /></clipPath><clipPath
       id="clipPath2564"
       clipPathUnits="userSpaceOnUse"><path
         style="fill:#ed333b;fill-opacity:1;stroke:none;stroke-width:1px;stroke-linecap:butt;stroke-linejoin:miter;stroke-opacity:1"
         d="m 120,188 c -8,20 -32,36 -48,36 v 12 c 16,0 40,16 48,36 h 4 v -84 z"
         id="path2566"
         inkscape:connector-curvature="0"
         sodipodi:nodetypes="ccccccc" /></clipPath><clipPath
       id="clipPath2578"
       clipPathUnits="userSpaceOnUse"><path
         clip-path="none"
         style="fill:url(#radialGradient2582);fill-opacity:1;stroke:none;stroke-width:1px;stroke-linecap:butt;stroke-linejoin:miter;stroke-opacity:1"
         d="m 120,268.34086 c -8,-20 -32,-36 -48,-36 v -12 c 16,0 40,-16 48,-36 h 4 v 84 z"
         id="path2580"
         inkscape:connector-curvature="0"
         sodipodi:nodetypes="ccccccc" /></clipPath></defs><sodipodi:namedview
     id="namedview4250"
     pagecolor="#ffffff"
     bordercolor="#000000"
     borderopacity="0.25"
     inkscape:showpageshadow="2"
     inkscape:pageopacity="0.0"
     inkscape:pagecheckerboard="0"
     inkscape:deskcolor="#d1d1d1"
     showgrid="false"
     inkscape:zoom="16.418136"
     inkscape:cx="13.003913"
     inkscape:cy="21.957426"
     inkscape:window-width="1920"
     inkscape:window-height="1023"
     inkscape:window-x="1600"
     inkscape:window-y="31"
     inkscape:window-maximized="1"
     inkscape:current-layer="svg4248"><inkscape:page
       x="0"
       y="0"
       width="16"
       height="16"
       id="page4628" /><inkscape:page
       x="26"
       y="0"
       width="192"
       height="152"
       id="page4630" /></sodipodi:namedview><g
     id="g9025"
     inkscape:label="symbolic"
     transform="translate(-160.48026,-171.8574)"
     style="display:inline;fill:#000000;enable-background:new"><path
       d="m 168.8565,174.68319 1.83462,1.97446 2.58711,-0.46615 -1.22197,2.44394 1.22197,2.44394 -2.58711,-0.46615 -1.83462,1.97446 -0.37624,-2.73029 -2.35404,-1.22196 2.35404,-1.22197 z m -2.13761,5.93337 c 0.34628,0 0.65927,0.20976 0.78912,0.53274 0.12986,0.31964 0.0533,0.68923 -0.19645,0.92896 l -5.10096,5.10097 c -0.2131,0.22308 -0.52941,0.31298 -0.82908,0.2364 -0.29633,-0.0765 -0.53274,-0.31299 -0.60931,-0.60932 -0.0765,-0.29967 0.0133,-0.61598 0.23307,-0.83241 l 5.10096,-5.10096 c 0.15983,-0.16315 0.38291,-0.25638 0.61265,-0.25638 z m 0,0"
       fill="#222222"
       id="path6874"
       style="fill:#000000;stroke-width:0.852381"
       inkscape:path-effect="#path-effect9302"
       inkscape:original-d="m 168.8565,174.68319 1.83462,1.97446 2.58711,-0.46615 -1.22197,2.44394 1.22197,2.44394 -2.58711,-0.46615 -1.83462,1.97446 -0.37624,-2.73029 -2.35404,-1.22196 2.35404,-1.22197 z m -2.13761,5.93337 c 0.34628,0 0.65927,0.20976 0.78912,0.53274 0.12986,0.31964 0.0533,0.68923 -0.19645,0.92896 l -5.10096,5.10097 c -0.2131,0.22308 -0.52941,0.31298 -0.82908,0.2364 -0.29633,-0.0765 -0.53274,-0.31299 -0.60931,-0.60932 -0.0765,-0.29967 0.0133,-0.61598 0.23307,-0.83241 l 5.10096,-5.10096 c 0.15983,-0.16315 0.38291,-0.25638 0.61265,-0.25638 z m 0,0" /><path
       id="rect7190"
       style="fill:#000000"
       d="m 164.53125,172.375 c -1.55812,0 -2.8125,1.25438 -2.8125,2.8125 v 8.37695 l 2.0293,-2.03125 v -2.78125 l -0.22657,-0.11718 0.22657,-0.11719 v -2.10352 c 0,-1.1053 0.89079,-1.99609 1.99609,-1.99609 h 1.93945 l 0.28125,-2.04297 z m 3.82031,0 1.89649,2.04297 h 1.41406 c 0.55565,0 1.05666,0.22552 1.41797,0.58984 l 2.3418,-0.42187 -1.76368,3.53125 v 1.03906 l 1.76172,3.5293 -1.76172,-0.31836 v 0.0312 c 0,1.1053 -0.89079,1.99609 -1.99609,1.99609 h -2.8457 l -0.80079,0.86328 -0.11914,-0.86328 h -1.20507 l -2.04297,2.04297 h 8.22656 c 1.55812,0 2.8125,-1.25438 2.8125,-2.8125 v -8.4375 c 0,-1.55812 -1.25438,-2.8125 -2.8125,-2.8125 z" /></g></svg>
